<svg width="100" height="100" viewBox="0 0 100 100" fill="none" xmlns="http://www.w3.org/2000/svg">
<circle cx="50" cy="50" r="50" fill="#00C2FF"/>
<path d="M37.5609 72.8143H46.2949C49.3397 72.8143 51.5299 71.9238 52.8654 70.1429C54.2543 68.3619 54.9487 66.1619 54.9487 63.5429C54.9487 61.5 54.5481 59.7452 53.7468 58.2786C52.9989 56.7595 52.0641 55.5024 50.9423 54.5071C49.8205 53.5119 48.2981 52.3595 46.375 51.05C44.3451 49.6881 42.6891 48.4571 41.4071 47.3571C40.1784 46.2048 39.1368 44.7643 38.2821 43.0357C37.4274 41.3071 37 39.2381 37 36.8286C37 32.6381 38.2821 29.2857 40.8462 26.7714C43.4103 24.2571 46.9626 23 51.5032 23H57.9936V28.1857H51.8237C49.2596 28.1857 47.3098 28.9976 45.9744 30.6214C44.6389 32.2452 43.9712 34.131 43.9712 36.2786C43.9712 38.3738 44.5855 40.1024 45.8141 41.4643C47.0427 42.8262 48.9124 44.3714 51.4231 46.1C53.7201 47.7238 55.563 49.1905 56.9519 50.5C58.3408 51.7571 59.516 53.4333 60.4776 55.5286C61.4925 57.6238 62 60.1381 62 63.0714C62 67.9952 60.5577 71.7143 57.6731 74.2286C54.8419 76.7429 50.9423 78 45.9744 78H37.5609V72.8143Z" fill="black"/>
</svg>
