<svg width="16" height="16" viewBox="0 0 16 16" fill="none" xmlns="http://www.w3.org/2000/svg">
<path d="M0.533325 1.59998H3.30667" stroke="white" stroke-miterlimit="10" stroke-linecap="round"/>
<path d="M3.30664 1.59998L5.6533 10.7733" stroke="white" stroke-miterlimit="10" stroke-linecap="round"/>
<path d="M6.07996 10.7733H14.88" stroke="white" stroke-miterlimit="10" stroke-linecap="round"/>
<path d="M7.14663 14.4C8.03031 14.4 8.74663 13.6836 8.74663 12.8C8.74663 11.9163 8.03031 11.2 7.14663 11.2C6.26295 11.2 5.54663 11.9163 5.54663 12.8C5.54663 13.6836 6.26295 14.4 7.14663 14.4Z" stroke="white" stroke-miterlimit="10" stroke-linecap="round"/>
<path d="M13.2801 14.4C14.1637 14.4 14.8801 13.6836 14.8801 12.8C14.8801 11.9163 14.1637 11.2 13.2801 11.2C12.3964 11.2 11.6801 11.9163 11.6801 12.8C11.6801 13.6836 12.3964 14.4 13.2801 14.4Z" stroke="white" stroke-miterlimit="10" stroke-linecap="round"/>
<path d="M13.4933 8.48H5.81328C5.49328 8.48 5.17328 8.26667 5.11995 7.94667L4.10661 4.37334C3.99995 3.89334 4.31994 3.46667 4.79994 3.46667H14.4533C14.9333 3.46667 15.3066 3.94667 15.1466 4.37334L14.1333 7.94667C14.1333 8.26667 13.8666 8.48 13.4933 8.48Z" stroke="white" stroke-miterlimit="10" stroke-linecap="round"/>
</svg>
