<svg width="39" height="24" viewBox="0 0 39 24" fill="none" xmlns="http://www.w3.org/2000/svg">
<path d="M1.01732 21.7371H4.76934C6.07738 21.7371 7.01825 21.3485 7.59195 20.5714C8.18861 19.7943 8.48693 18.8343 8.48693 17.6914C8.48693 16.8 8.31482 16.0343 7.9706 15.3943C7.64932 14.7314 7.24773 14.1828 6.76582 13.7486C6.28391 13.3143 5.62989 12.8114 4.80376 12.24C3.93173 11.6457 3.22034 11.1086 2.66959 10.6286C2.14178 10.1257 1.69429 9.49713 1.32712 8.74285C0.959952 7.98856 0.776367 7.08571 0.776367 6.03428C0.776367 4.20571 1.32712 2.74285 2.42863 1.64571C3.53014 0.548571 5.05619 0 7.00678 0H9.79497V2.26286H7.14447C6.04296 2.26286 5.20535 2.61714 4.63165 3.32571C4.05795 4.03428 3.77109 4.85714 3.77109 5.79428C3.77109 6.70856 4.035 7.46285 4.5628 8.05713C5.09061 8.65142 5.89379 9.3257 6.97236 10.08C7.95912 10.7886 8.75083 11.4286 9.34748 12C9.94414 12.5486 10.449 13.28 10.8621 14.1943C11.2981 15.1086 11.5161 16.2057 11.5161 17.4857C11.5161 19.6343 10.8965 21.2571 9.65728 22.3543C8.44103 23.4514 6.76582 24 4.63165 24H1.01732V21.7371Z" fill="black"/>
<path d="M15.5247 10.5205C14.6 10.5205 13.8801 10.2907 13.3649 9.83099C12.8629 9.35815 12.6119 8.70801 12.6119 7.88055V2.63998C12.6119 1.81253 12.8629 1.16895 13.3649 0.709249C13.8801 0.236416 14.6 0 15.5247 0C16.4493 0 17.1626 0.236416 17.6646 0.709249C18.1798 1.16895 18.4374 1.81253 18.4374 2.63998V7.88055C18.4374 8.70801 18.1798 9.35815 17.6646 9.83099C17.1626 10.2907 16.4493 10.5205 15.5247 10.5205ZM15.5247 9.29905C15.9474 9.29905 16.2776 9.18084 16.5154 8.94442C16.7664 8.69487 16.8918 8.34025 16.8918 7.88055V2.63998C16.8918 2.18028 16.7664 1.83223 16.5154 1.59581C16.2776 1.34626 15.9474 1.22148 15.5247 1.22148C15.1019 1.22148 14.7651 1.34626 14.5141 1.59581C14.2763 1.83223 14.1575 2.18028 14.1575 2.63998V7.88055C14.1575 8.34025 14.2763 8.69487 14.5141 8.94442C14.7651 9.18084 15.1019 9.29905 15.5247 9.29905Z" fill="black"/>
<path d="M20.4193 0.137909H21.6478L21.8261 0.709249L22.6385 0.472833C23.1933 0.302087 23.6292 0.183879 23.9462 0.118208C24.2765 0.0394026 24.5869 0 24.8775 0C25.4455 0 25.8418 0.249551 26.0664 0.748652C26.4362 0.61731 26.958 0.459699 27.6317 0.275819C28.3054 0.0919398 28.8007 0 29.1178 0C29.5933 0 29.9434 0.164178 30.1679 0.492534C30.4057 0.82089 30.5246 1.24775 30.5246 1.77312V10.3826H28.9394V2.28536C28.9394 1.90447 28.913 1.64178 28.8602 1.4973C28.8074 1.33969 28.6753 1.26089 28.4639 1.26089C28.3582 1.26089 27.6317 1.47104 26.2843 1.89133V10.3826H24.6992V2.28536C24.6992 1.90447 24.6728 1.64178 24.6199 1.4973C24.5671 1.33969 24.435 1.26089 24.2236 1.26089C24.1179 1.26089 23.3782 1.47104 22.0044 1.89133V10.3826H20.4193V0.137909Z" fill="black"/>
<path d="M34.7672 10.3826C34.0407 10.3826 33.4594 10.1659 33.0235 9.73248C32.6008 9.29905 32.3895 8.71458 32.3895 7.97906V2.73849C32.3895 1.88476 32.6272 1.21492 33.1028 0.728951C33.5783 0.242984 34.285 0 35.2229 0C36.1608 0 36.8609 0.242984 37.3232 0.728951C37.7988 1.21492 38.0366 1.88476 38.0366 2.73849V3.64475C38.0366 4.19639 37.8781 4.61669 37.561 4.90564C37.244 5.18146 36.8279 5.39161 36.3127 5.53609L33.9746 6.18623V8.11697C33.9746 8.43219 34.0671 8.69487 34.252 8.90502C34.4502 9.10203 34.7011 9.20054 35.005 9.20054H37.1449V10.3826H34.7672ZM35.1833 4.61012C35.6192 4.49191 35.9098 4.40654 36.0551 4.354C36.2136 4.28833 36.3193 4.19639 36.3722 4.07818C36.425 3.95998 36.4514 3.76296 36.4514 3.48714V2.40357C36.4514 1.98327 36.3391 1.67462 36.1146 1.4776C35.9032 1.28059 35.606 1.18208 35.2229 1.18208C34.8531 1.18208 34.5492 1.28716 34.3115 1.4973C34.0869 1.70745 33.9746 2.00954 33.9746 2.40357V4.94504L35.1833 4.61012Z" fill="black"/>
<path d="M15.8537 23.8732C15.1897 23.8732 14.6645 23.674 14.2781 23.2756C13.8917 22.8772 13.6986 22.3399 13.6986 21.6638V15.5426H12.6119V14.456H13.6986V11.7214L15.1474 11.1781V14.456H16.5962V15.5426H15.1474V21.7906C15.1474 22.0803 15.2259 22.3218 15.3828 22.515C15.5519 22.6961 15.7752 22.7866 16.0529 22.7866H16.5962V23.8732H15.8537Z" fill="black"/>
<path d="M20.3383 24C19.4932 24 18.8352 23.7887 18.3643 23.3662C17.9055 22.9315 17.6761 22.3339 17.6761 21.5733V16.756C17.6761 15.9954 17.9055 15.4038 18.3643 14.9812C18.8352 14.5466 19.4932 14.3292 20.3383 14.3292C21.1835 14.3292 21.8355 14.5466 22.2943 14.9812C22.7651 15.4038 23.0006 15.9954 23.0006 16.756V21.5733C23.0006 22.3339 22.7651 22.9315 22.2943 23.3662C21.8355 23.7887 21.1835 24 20.3383 24ZM20.3383 22.8772C20.7247 22.8772 21.0265 22.7685 21.2438 22.5512C21.4732 22.3218 21.5879 21.9958 21.5879 21.5733V16.756C21.5879 16.3334 21.4732 16.0135 21.2438 15.7962C21.0265 15.5668 20.7247 15.4521 20.3383 15.4521C19.952 15.4521 19.6441 15.5668 19.4147 15.7962C19.1974 16.0135 19.0887 16.3334 19.0887 16.756V21.5733C19.0887 21.9958 19.1974 22.3218 19.4147 22.5512C19.6441 22.7685 19.952 22.8772 20.3383 22.8772Z" fill="black"/>
<path d="M24.812 14.456H25.9349L26.0979 15.1261L26.5506 14.9088C26.937 14.7156 27.257 14.5707 27.5105 14.4741C27.7761 14.3775 28.0417 14.3292 28.3074 14.3292V15.3977C28.1504 15.3977 27.9391 15.446 27.6735 15.5426C27.4079 15.6271 26.937 15.8324 26.2609 16.1584V23.8732H24.812V14.456Z" fill="black"/>
<path d="M31.5415 23.8732C30.8774 23.8732 30.3462 23.674 29.9478 23.2756C29.5614 22.8772 29.3682 22.3399 29.3682 21.6638V16.8465C29.3682 16.0618 29.5856 15.446 30.0202 14.9993C30.4549 14.5526 31.1008 14.3292 31.958 14.3292C32.8153 14.3292 33.4552 14.5526 33.8777 14.9993C34.3124 15.446 34.5297 16.0618 34.5297 16.8465V17.6796C34.5297 18.1867 34.3848 18.573 34.0951 18.8386C33.8053 19.0922 33.425 19.2854 32.9541 19.4182L30.8171 20.0158V21.7906C30.8171 22.0803 30.9016 22.3218 31.0706 22.515C31.2517 22.6961 31.4811 22.7866 31.7588 22.7866H33.7148V23.8732H31.5415ZM31.9218 18.567C32.3202 18.4583 32.5859 18.3799 32.7187 18.3316C32.8636 18.2712 32.9601 18.1867 33.0084 18.078C33.0567 17.9694 33.0809 17.7883 33.0809 17.5347V16.5387C33.0809 16.1523 32.9783 15.8686 32.773 15.6875C32.5798 15.5064 32.3082 15.4158 31.958 15.4158C31.62 15.4158 31.3423 15.5124 31.125 15.7056C30.9197 15.8988 30.8171 16.1765 30.8171 16.5387V18.8749L31.9218 18.567Z" fill="black"/>
</svg>
